<mxfile host="app.diagrams.net" agent="Mozilla/5.0 (Windows NT 10.0; Win64; x64) AppleWebKit/537.36 (KHTML, like Gecko) Chrome/128.0.0.0 Safari/537.36 OPR/114.0.0.0" version="24.8.3">
  <diagram id="prtHgNgQTEPvFCAcTncT" name="Page-1">
    <mxGraphModel grid="0" page="1" gridSize="10" guides="1" tooltips="1" connect="1" arrows="1" fold="1" pageScale="1" pageWidth="1169" pageHeight="1654" math="0" shadow="0">
      <root>
        <mxCell id="0" />
        <mxCell id="1" parent="0" />
        <mxCell id="AN-kq-exyotqL5OQ-fnr-7" style="edgeStyle=orthogonalEdgeStyle;rounded=0;orthogonalLoop=1;jettySize=auto;html=1;entryX=0;entryY=0.5;entryDx=0;entryDy=0;" edge="1" parent="1" source="n9ktEe5yNUZy0bc-ptNR-20" target="n9ktEe5yNUZy0bc-ptNR-22">
          <mxGeometry relative="1" as="geometry" />
        </mxCell>
        <mxCell id="n9ktEe5yNUZy0bc-ptNR-20" value="" style="strokeWidth=2;html=1;shape=mxgraph.flowchart.start_2;whiteSpace=wrap;strokeColor=none;fontColor=#393C56;fillColor=#000000;" vertex="1" parent="1">
          <mxGeometry x="73" y="192" width="20" height="20" as="geometry" />
        </mxCell>
        <mxCell id="AN-kq-exyotqL5OQ-fnr-8" style="edgeStyle=orthogonalEdgeStyle;rounded=0;orthogonalLoop=1;jettySize=auto;html=1;entryX=0.5;entryY=0;entryDx=0;entryDy=0;" edge="1" parent="1" source="n9ktEe5yNUZy0bc-ptNR-22" target="n9ktEe5yNUZy0bc-ptNR-25">
          <mxGeometry relative="1" as="geometry" />
        </mxCell>
        <mxCell id="n9ktEe5yNUZy0bc-ptNR-22" value="Options Selection" style="rounded=1;whiteSpace=wrap;html=1;strokeColor=#E07A5F;fontColor=#393C56;fillColor=#F2CC8F;" vertex="1" parent="1">
          <mxGeometry x="152.5" y="173" width="125" height="58" as="geometry" />
        </mxCell>
        <mxCell id="n9ktEe5yNUZy0bc-ptNR-27" value="Select Documents" style="rounded=1;whiteSpace=wrap;html=1;fillColor=#F2CC8F;strokeColor=#E07A5F;fontColor=#393C56;arcSize=14;" vertex="1" parent="1">
          <mxGeometry x="154.5" y="466" width="120" height="60" as="geometry" />
        </mxCell>
        <mxCell id="H6BzWqApqqG7C8UaykM9-17" value="" style="edgeStyle=orthogonalEdgeStyle;rounded=0;orthogonalLoop=1;jettySize=auto;html=1;" edge="1" parent="1">
          <mxGeometry relative="1" as="geometry">
            <mxPoint x="271" y="698" as="sourcePoint" />
            <mxPoint x="390" y="698" as="targetPoint" />
            <Array as="points">
              <mxPoint x="300" y="698" />
              <mxPoint x="300" y="698" />
            </Array>
          </mxGeometry>
        </mxCell>
        <mxCell id="n9ktEe5yNUZy0bc-ptNR-47" value="Select Printing properties" style="rounded=1;whiteSpace=wrap;html=1;fillColor=#F2CC8F;strokeColor=#E07A5F;fontColor=#393C56;" vertex="1" parent="1">
          <mxGeometry x="151" y="650" width="120" height="60" as="geometry" />
        </mxCell>
        <mxCell id="n9ktEe5yNUZy0bc-ptNR-54" value="" style="edgeStyle=orthogonalEdgeStyle;rounded=0;orthogonalLoop=1;jettySize=auto;html=1;strokeColor=#000000;fontColor=#393C56;fillColor=#d5e8d4;strokeWidth=1;" edge="1" parent="1" source="n9ktEe5yNUZy0bc-ptNR-51" target="n9ktEe5yNUZy0bc-ptNR-53">
          <mxGeometry relative="1" as="geometry" />
        </mxCell>
        <mxCell id="n9ktEe5yNUZy0bc-ptNR-51" value="Purchase increase page order" style="rounded=1;whiteSpace=wrap;html=1;strokeColor=#82b366;fillColor=#d5e8d4;movable=1;resizable=1;rotatable=1;deletable=1;editable=1;locked=0;connectable=1;" vertex="1" parent="1">
          <mxGeometry x="855.5" y="278" width="115" height="52" as="geometry" />
        </mxCell>
        <mxCell id="n9ktEe5yNUZy0bc-ptNR-52" value="" style="edgeStyle=orthogonalEdgeStyle;rounded=0;orthogonalLoop=1;jettySize=auto;html=1;strokeColor=#0A0604;fontColor=#393C56;fillColor=#f8cecc;entryX=0;entryY=0.5;entryDx=0;entryDy=0;strokeWidth=1;exitX=1;exitY=0.5;exitDx=0;exitDy=0;" edge="1" parent="1" source="n9ktEe5yNUZy0bc-ptNR-39" target="n9ktEe5yNUZy0bc-ptNR-51">
          <mxGeometry relative="1" as="geometry">
            <mxPoint x="584" y="383" as="sourcePoint" />
          </mxGeometry>
        </mxCell>
        <mxCell id="b3z0fCEWwH0nH7quRvht-1" style="edgeStyle=orthogonalEdgeStyle;rounded=0;orthogonalLoop=1;jettySize=auto;html=1;exitX=0;exitY=0.5;exitDx=0;exitDy=0;entryX=1;entryY=0.5;entryDx=0;entryDy=0;" edge="1" parent="1" source="n9ktEe5yNUZy0bc-ptNR-53" target="n9ktEe5yNUZy0bc-ptNR-57">
          <mxGeometry relative="1" as="geometry" />
        </mxCell>
        <mxCell id="b3z0fCEWwH0nH7quRvht-2" value="Paid success" style="edgeLabel;html=1;align=center;verticalAlign=middle;resizable=0;points=[];" vertex="1" connectable="0" parent="b3z0fCEWwH0nH7quRvht-1">
          <mxGeometry x="-0.0495" relative="1" as="geometry">
            <mxPoint x="13" as="offset" />
          </mxGeometry>
        </mxCell>
        <mxCell id="b3z0fCEWwH0nH7quRvht-40" style="edgeStyle=orthogonalEdgeStyle;rounded=0;orthogonalLoop=1;jettySize=auto;html=1;exitX=0.5;exitY=1;exitDx=0;exitDy=0;entryX=1;entryY=0.5;entryDx=0;entryDy=0;" edge="1" parent="1" source="n9ktEe5yNUZy0bc-ptNR-53" target="n9ktEe5yNUZy0bc-ptNR-129">
          <mxGeometry relative="1" as="geometry" />
        </mxCell>
        <mxCell id="b3z0fCEWwH0nH7quRvht-41" value="Paid fail" style="edgeLabel;html=1;align=center;verticalAlign=middle;resizable=0;points=[];" connectable="0" vertex="1" parent="b3z0fCEWwH0nH7quRvht-40">
          <mxGeometry x="-0.3392" y="4" relative="1" as="geometry">
            <mxPoint as="offset" />
          </mxGeometry>
        </mxCell>
        <mxCell id="n9ktEe5yNUZy0bc-ptNR-53" value="" style="rhombus;whiteSpace=wrap;html=1;strokeColor=#82b366;fillColor=#d5e8d4;" vertex="1" parent="1">
          <mxGeometry x="864.5" y="419.25" width="97" height="69" as="geometry" />
        </mxCell>
        <mxCell id="n9ktEe5yNUZy0bc-ptNR-9" value="System" style="swimlane;startSize=20;html=1;labelBackgroundColor=none;fillColor=#FFFF66;strokeColor=#b85450;movable=1;resizable=1;rotatable=1;deletable=1;editable=1;locked=0;connectable=1;" vertex="1" parent="1">
          <mxGeometry x="371" y="138" width="395" height="1399" as="geometry" />
        </mxCell>
        <mxCell id="n9ktEe5yNUZy0bc-ptNR-10" value="BK Pay" style="swimlane;startSize=20;html=1;labelBackgroundColor=none;fillColor=#6d8764;strokeColor=#3A5431;fontColor=#ffffff;movable=0;resizable=0;rotatable=0;deletable=0;editable=0;locked=1;connectable=0;" vertex="1" parent="1">
          <mxGeometry x="766" y="138" width="300" height="1399" as="geometry" />
        </mxCell>
        <mxCell id="n9ktEe5yNUZy0bc-ptNR-8" value="Student" style="swimlane;startSize=20;html=1;labelBackgroundColor=none;fillColor=#FF0000;strokeColor=#E07A5F;fontColor=#393C56;movable=0;resizable=0;rotatable=0;deletable=0;editable=0;locked=1;connectable=0;" vertex="1" parent="1">
          <mxGeometry x="51" y="138" width="320" height="1399" as="geometry" />
        </mxCell>
        <mxCell id="n9ktEe5yNUZy0bc-ptNR-7" value="Printing Service Module" style="swimlane;childLayout=stackLayout;resizeParent=1;resizeParentMax=0;startSize=20;html=1;labelBackgroundColor=none;fillColor=#f8cecc;strokeColor=#b85450;movable=0;resizable=0;rotatable=0;deletable=0;editable=0;locked=1;connectable=0;container=0;" vertex="1" parent="1">
          <mxGeometry x="51" y="118" width="1015" height="1419" as="geometry" />
        </mxCell>
        <mxCell id="n9ktEe5yNUZy0bc-ptNR-57" value="Update Page available" style="rounded=1;whiteSpace=wrap;html=1;strokeColor=#b85450;fillColor=#f8cecc;movable=1;resizable=1;rotatable=1;deletable=1;editable=1;locked=0;connectable=1;" vertex="1" parent="1">
          <mxGeometry x="619" y="425" width="100" height="57.49999999999999" as="geometry" />
        </mxCell>
        <mxCell id="n9ktEe5yNUZy0bc-ptNR-39" value="Create order" style="rounded=0;whiteSpace=wrap;html=1;strokeColor=#b85450;fillColor=#f8cecc;movable=1;resizable=1;rotatable=1;deletable=1;editable=1;locked=0;connectable=1;" vertex="1" parent="1">
          <mxGeometry x="616" y="275.25" width="106" height="57.49999999999999" as="geometry" />
        </mxCell>
        <mxCell id="n9ktEe5yNUZy0bc-ptNR-40" value="" style="edgeStyle=orthogonalEdgeStyle;rounded=0;orthogonalLoop=1;jettySize=auto;html=1;strokeColor=#000000;fontColor=#393C56;fillColor=#F2CC8F;strokeWidth=1;" edge="1" parent="1" source="n9ktEe5yNUZy0bc-ptNR-29" target="n9ktEe5yNUZy0bc-ptNR-39">
          <mxGeometry relative="1" as="geometry" />
        </mxCell>
        <mxCell id="n9ktEe5yNUZy0bc-ptNR-29" value="Create number of pages to Purchase" style="rounded=1;whiteSpace=wrap;html=1;fillColor=#f8cecc;strokeColor=#b85450;movable=1;resizable=1;rotatable=1;deletable=1;editable=1;locked=0;connectable=1;" vertex="1" parent="1">
          <mxGeometry x="440" y="275.25" width="90" height="57.49999999999999" as="geometry" />
        </mxCell>
        <mxCell id="H6BzWqApqqG7C8UaykM9-31" value="" style="edgeStyle=orthogonalEdgeStyle;rounded=0;orthogonalLoop=1;jettySize=auto;html=1;" edge="1" parent="1" source="n9ktEe5yNUZy0bc-ptNR-82" target="n9ktEe5yNUZy0bc-ptNR-129">
          <mxGeometry relative="1" as="geometry" />
        </mxCell>
        <mxCell id="n9ktEe5yNUZy0bc-ptNR-82" value="Log activity" style="rounded=1;whiteSpace=wrap;html=1;strokeColor=#b85450;fillColor=#f8cecc;movable=1;resizable=1;rotatable=1;deletable=1;editable=1;locked=0;connectable=1;" vertex="1" parent="1">
          <mxGeometry x="548" y="1290" width="100" height="57.49999999999999" as="geometry" />
        </mxCell>
        <mxCell id="n9ktEe5yNUZy0bc-ptNR-88" value="Check print properties" style="whiteSpace=wrap;html=1;fillColor=#f8cecc;strokeColor=#b85450;rounded=1;" vertex="1" parent="1">
          <mxGeometry x="390" y="679" width="120" height="60" as="geometry" />
        </mxCell>
        <mxCell id="b3z0fCEWwH0nH7quRvht-15" style="edgeStyle=orthogonalEdgeStyle;rounded=0;orthogonalLoop=1;jettySize=auto;html=1;exitX=0;exitY=0.5;exitDx=0;exitDy=0;" edge="1" parent="1" source="n9ktEe5yNUZy0bc-ptNR-90" target="n9ktEe5yNUZy0bc-ptNR-47">
          <mxGeometry relative="1" as="geometry">
            <Array as="points">
              <mxPoint x="127" y="789" />
              <mxPoint x="127" y="685" />
            </Array>
          </mxGeometry>
        </mxCell>
        <mxCell id="b3z0fCEWwH0nH7quRvht-18" value="&lt;font style=&quot;font-size: 12px;&quot;&gt;Invalid&lt;/font&gt;" style="edgeLabel;html=1;align=center;verticalAlign=middle;resizable=0;points=[];" connectable="0" vertex="1" parent="b3z0fCEWwH0nH7quRvht-15">
          <mxGeometry x="-0.7079" y="1" relative="1" as="geometry">
            <mxPoint x="-78" y="-1" as="offset" />
          </mxGeometry>
        </mxCell>
        <mxCell id="n9ktEe5yNUZy0bc-ptNR-90" value="" style="rhombus;whiteSpace=wrap;html=1;strokeColor=#b85450;fillColor=#f8cecc;" vertex="1" parent="1">
          <mxGeometry x="420.5" y="762" width="59" height="53" as="geometry" />
        </mxCell>
        <mxCell id="b3z0fCEWwH0nH7quRvht-12" value="" style="edgeStyle=orthogonalEdgeStyle;rounded=0;orthogonalLoop=1;jettySize=auto;html=1;entryX=0;entryY=0.5;entryDx=0;entryDy=0;" edge="1" parent="1" source="n9ktEe5yNUZy0bc-ptNR-104" target="H6BzWqApqqG7C8UaykM9-9">
          <mxGeometry relative="1" as="geometry" />
        </mxCell>
        <mxCell id="n9ktEe5yNUZy0bc-ptNR-110" value="" style="edgeStyle=orthogonalEdgeStyle;rounded=0;orthogonalLoop=1;jettySize=auto;html=1;strokeColor=#000000;fontColor=#393C56;fillColor=#f8cecc;strokeWidth=1;exitX=0.5;exitY=0;exitDx=0;exitDy=0;" edge="1" parent="1" source="n9ktEe5yNUZy0bc-ptNR-107" target="n9ktEe5yNUZy0bc-ptNR-109">
          <mxGeometry relative="1" as="geometry">
            <Array as="points">
              <mxPoint x="669" y="763" />
              <mxPoint x="669" y="763" />
            </Array>
          </mxGeometry>
        </mxCell>
        <mxCell id="n9ktEe5yNUZy0bc-ptNR-112" value="Not Enough" style="edgeLabel;html=1;align=center;verticalAlign=middle;resizable=0;points=[];strokeColor=#E07A5F;fontColor=#393C56;fillColor=#F2CC8F;" connectable="0" vertex="1" parent="n9ktEe5yNUZy0bc-ptNR-110">
          <mxGeometry x="-0.098" y="2" relative="1" as="geometry">
            <mxPoint as="offset" />
          </mxGeometry>
        </mxCell>
        <mxCell id="n9ktEe5yNUZy0bc-ptNR-107" value="" style="rhombus;whiteSpace=wrap;html=1;strokeColor=#b85450;fillColor=#f8cecc;" vertex="1" parent="1">
          <mxGeometry x="639" y="925" width="60" height="62" as="geometry" />
        </mxCell>
        <mxCell id="H6BzWqApqqG7C8UaykM9-18" style="edgeStyle=orthogonalEdgeStyle;rounded=0;orthogonalLoop=1;jettySize=auto;html=1;entryX=1;entryY=0.25;entryDx=0;entryDy=0;" edge="1" parent="1" source="n9ktEe5yNUZy0bc-ptNR-109" target="n9ktEe5yNUZy0bc-ptNR-47">
          <mxGeometry relative="1" as="geometry">
            <Array as="points">
              <mxPoint x="512" y="665" />
              <mxPoint x="512" y="665" />
            </Array>
          </mxGeometry>
        </mxCell>
        <mxCell id="n9ktEe5yNUZy0bc-ptNR-109" value="Display message" style="rounded=1;whiteSpace=wrap;html=1;fillColor=#f8cecc;strokeColor=#b85450;" vertex="1" parent="1">
          <mxGeometry x="588.5" y="650" width="110.5" height="56" as="geometry" />
        </mxCell>
        <mxCell id="H6BzWqApqqG7C8UaykM9-32" value="" style="edgeStyle=orthogonalEdgeStyle;rounded=0;orthogonalLoop=1;jettySize=auto;html=1;" edge="1" parent="1" source="n9ktEe5yNUZy0bc-ptNR-129" target="H6BzWqApqqG7C8UaykM9-27">
          <mxGeometry relative="1" as="geometry" />
        </mxCell>
        <mxCell id="n9ktEe5yNUZy0bc-ptNR-129" value="" style="rhombus;whiteSpace=wrap;html=1;strokeColor=#b85450;fillColor=#f8cecc;" vertex="1" parent="1">
          <mxGeometry x="558" y="1382" width="80" height="70" as="geometry" />
        </mxCell>
        <mxCell id="n9ktEe5yNUZy0bc-ptNR-113" value="Print Documents" style="rounded=1;whiteSpace=wrap;html=1;fillColor=#f8cecc;strokeColor=#b85450;" vertex="1" parent="1">
          <mxGeometry x="463" y="1112" width="120" height="60" as="geometry" />
        </mxCell>
        <mxCell id="n9ktEe5yNUZy0bc-ptNR-25" value="" style="rhombus;whiteSpace=wrap;html=1;strokeColor=#E07A5F;fontColor=#393C56;fillColor=#F2CC8F;" vertex="1" parent="1">
          <mxGeometry x="175" y="269" width="80" height="70" as="geometry" />
        </mxCell>
        <mxCell id="b3z0fCEWwH0nH7quRvht-38" value="" style="edgeStyle=orthogonalEdgeStyle;rounded=0;orthogonalLoop=1;jettySize=auto;html=1;" edge="1" parent="1" source="66kOjhKlg9QzN3IeVTge-13" target="b3z0fCEWwH0nH7quRvht-26">
          <mxGeometry relative="1" as="geometry" />
        </mxCell>
        <mxCell id="66kOjhKlg9QzN3IeVTge-13" value="&lt;p style=&quot;line-height: 100%;&quot;&gt;&lt;font style=&quot;font-size: 10px;&quot;&gt;&amp;nbsp;Update Remaining Pages&lt;/font&gt;&lt;/p&gt;" style="rounded=1;whiteSpace=wrap;html=1;fontFamily=Helvetica;fontSize=11;labelBackgroundColor=none;fillColor=#f8cecc;strokeColor=#b85450;verticalAlign=middle;" vertex="1" parent="1">
          <mxGeometry x="597" y="1112" width="120" height="60" as="geometry" />
        </mxCell>
        <mxCell id="n9ktEe5yNUZy0bc-ptNR-45" value="Select Printers" style="rounded=1;whiteSpace=wrap;html=1;fillColor=#F2CC8F;strokeColor=#E07A5F;fontColor=#393C56;" vertex="1" parent="1">
          <mxGeometry x="152.5" y="550" width="120" height="60" as="geometry" />
        </mxCell>
        <mxCell id="n9ktEe5yNUZy0bc-ptNR-104" value="Create printing packages" style="rounded=1;whiteSpace=wrap;html=1;fillColor=#f8cecc;strokeColor=#b85450;" vertex="1" parent="1">
          <mxGeometry x="390" y="926" width="83" height="60" as="geometry" />
        </mxCell>
        <mxCell id="HC6WTdqTUnvUWUWs_5I_-8" value="" style="html=1;points=[];perimeter=orthogonalPerimeter;fillColor=strokeColor;rotation=90;" vertex="1" parent="1">
          <mxGeometry x="435" y="843" width="5" height="90" as="geometry" />
        </mxCell>
        <mxCell id="b3z0fCEWwH0nH7quRvht-25" style="edgeStyle=orthogonalEdgeStyle;rounded=0;orthogonalLoop=1;jettySize=auto;html=1;exitX=0.5;exitY=1;exitDx=0;exitDy=0;" edge="1" parent="1" source="66kOjhKlg9QzN3IeVTge-13" target="66kOjhKlg9QzN3IeVTge-13">
          <mxGeometry relative="1" as="geometry" />
        </mxCell>
        <mxCell id="b3z0fCEWwH0nH7quRvht-26" value="" style="html=1;points=[];perimeter=orthogonalPerimeter;fillColor=strokeColor;rotation=90;" vertex="1" parent="1">
          <mxGeometry x="603" y="1197" width="5" height="90" as="geometry" />
        </mxCell>
        <mxCell id="b3z0fCEWwH0nH7quRvht-27" style="edgeStyle=orthogonalEdgeStyle;rounded=0;orthogonalLoop=1;jettySize=auto;html=1;exitX=0.5;exitY=1;exitDx=0;exitDy=0;entryX=0.63;entryY=0.299;entryDx=0;entryDy=0;entryPerimeter=0;" edge="1" parent="1" source="n9ktEe5yNUZy0bc-ptNR-107" target="lNycp6lvrUIBZqgX708--5">
          <mxGeometry relative="1" as="geometry">
            <mxPoint x="623" y="1049" as="targetPoint" />
          </mxGeometry>
        </mxCell>
        <mxCell id="b3z0fCEWwH0nH7quRvht-28" value="Enough" style="edgeLabel;html=1;align=center;verticalAlign=middle;resizable=0;points=[];" vertex="1" connectable="0" parent="b3z0fCEWwH0nH7quRvht-27">
          <mxGeometry x="-0.3162" y="3" relative="1" as="geometry">
            <mxPoint y="-1" as="offset" />
          </mxGeometry>
        </mxCell>
        <mxCell id="lNycp6lvrUIBZqgX708--2" style="edgeStyle=orthogonalEdgeStyle;rounded=0;orthogonalLoop=1;jettySize=auto;html=1;" edge="1" parent="1" source="lNycp6lvrUIBZqgX708--1" target="n9ktEe5yNUZy0bc-ptNR-27">
          <mxGeometry relative="1" as="geometry" />
        </mxCell>
        <mxCell id="lNycp6lvrUIBZqgX708--3" style="edgeStyle=orthogonalEdgeStyle;rounded=0;orthogonalLoop=1;jettySize=auto;html=1;entryX=1;entryY=0.5;entryDx=0;entryDy=0;exitX=0.645;exitY=0.304;exitDx=0;exitDy=0;exitPerimeter=0;" edge="1" parent="1" source="lNycp6lvrUIBZqgX708--1" target="n9ktEe5yNUZy0bc-ptNR-45">
          <mxGeometry relative="1" as="geometry">
            <Array as="points">
              <mxPoint x="233" y="450" />
              <mxPoint x="299" y="450" />
              <mxPoint x="299" y="580" />
            </Array>
          </mxGeometry>
        </mxCell>
        <mxCell id="lNycp6lvrUIBZqgX708--4" style="edgeStyle=orthogonalEdgeStyle;rounded=0;orthogonalLoop=1;jettySize=auto;html=1;exitX=0.314;exitY=0.126;exitDx=0;exitDy=0;exitPerimeter=0;" edge="1" parent="1" source="lNycp6lvrUIBZqgX708--1" target="n9ktEe5yNUZy0bc-ptNR-47">
          <mxGeometry relative="1" as="geometry">
            <mxPoint x="246" y="424" as="sourcePoint" />
            <Array as="points">
              <mxPoint x="249" y="432" />
              <mxPoint x="322" y="432" />
              <mxPoint x="322" y="624" />
              <mxPoint x="212" y="624" />
            </Array>
          </mxGeometry>
        </mxCell>
        <mxCell id="lNycp6lvrUIBZqgX708--1" value="" style="html=1;points=[];perimeter=orthogonalPerimeter;fillColor=strokeColor;rotation=90;" vertex="1" parent="1">
          <mxGeometry x="212.5" y="353" width="5" height="90" as="geometry" />
        </mxCell>
        <mxCell id="lNycp6lvrUIBZqgX708--6" style="edgeStyle=orthogonalEdgeStyle;rounded=0;orthogonalLoop=1;jettySize=auto;html=1;entryX=0.75;entryY=0;entryDx=0;entryDy=0;" edge="1" parent="1" source="lNycp6lvrUIBZqgX708--5" target="66kOjhKlg9QzN3IeVTge-13">
          <mxGeometry relative="1" as="geometry">
            <Array as="points">
              <mxPoint x="651" y="1091" />
              <mxPoint x="651" y="1091" />
            </Array>
          </mxGeometry>
        </mxCell>
        <mxCell id="lNycp6lvrUIBZqgX708--5" value="" style="html=1;points=[];perimeter=orthogonalPerimeter;fillColor=strokeColor;rotation=90;" vertex="1" parent="1">
          <mxGeometry x="648" y="1011" width="5" height="90" as="geometry" />
        </mxCell>
        <mxCell id="H6BzWqApqqG7C8UaykM9-2" style="edgeStyle=orthogonalEdgeStyle;rounded=0;orthogonalLoop=1;jettySize=auto;html=1;entryX=0.674;entryY=0.505;entryDx=0;entryDy=0;exitX=0.5;exitY=1;exitDx=0;exitDy=0;entryPerimeter=0;" edge="1" parent="1" source="n9ktEe5yNUZy0bc-ptNR-25" target="lNycp6lvrUIBZqgX708--1">
          <mxGeometry relative="1" as="geometry">
            <mxPoint x="214.08" y="345" as="sourcePoint" />
            <mxPoint x="214.08" y="383" as="targetPoint" />
          </mxGeometry>
        </mxCell>
        <mxCell id="H6BzWqApqqG7C8UaykM9-5" value="&lt;span style=&quot;color: rgb(57, 60, 86);&quot;&gt;[Print Documents]&lt;/span&gt;" style="edgeLabel;html=1;align=center;verticalAlign=middle;resizable=0;points=[];" connectable="0" vertex="1" parent="H6BzWqApqqG7C8UaykM9-2">
          <mxGeometry x="-0.2456" y="1" relative="1" as="geometry">
            <mxPoint as="offset" />
          </mxGeometry>
        </mxCell>
        <mxCell id="H6BzWqApqqG7C8UaykM9-3" value="[Purchase]" style="edgeLabel;html=1;align=center;verticalAlign=middle;resizable=0;points=[];strokeColor=#E07A5F;fontColor=#393C56;fillColor=#F2CC8F;" connectable="0" vertex="1" parent="1">
          <mxGeometry x="326.0033333333333" y="293" as="geometry" />
        </mxCell>
        <mxCell id="H6BzWqApqqG7C8UaykM9-4" style="edgeStyle=orthogonalEdgeStyle;rounded=0;orthogonalLoop=1;jettySize=auto;html=1;entryX=0;entryY=0.5;entryDx=0;entryDy=0;exitX=1;exitY=0.5;exitDx=0;exitDy=0;" edge="1" parent="1" source="n9ktEe5yNUZy0bc-ptNR-25" target="n9ktEe5yNUZy0bc-ptNR-29">
          <mxGeometry relative="1" as="geometry">
            <mxPoint x="225" y="241" as="sourcePoint" />
            <mxPoint x="225" y="279" as="targetPoint" />
          </mxGeometry>
        </mxCell>
        <mxCell id="H6BzWqApqqG7C8UaykM9-16" value="" style="edgeStyle=orthogonalEdgeStyle;rounded=0;orthogonalLoop=1;jettySize=auto;html=1;" edge="1" parent="1" source="H6BzWqApqqG7C8UaykM9-9" target="n9ktEe5yNUZy0bc-ptNR-107">
          <mxGeometry relative="1" as="geometry" />
        </mxCell>
        <mxCell id="H6BzWqApqqG7C8UaykM9-9" value="Check available page" style="rounded=1;whiteSpace=wrap;html=1;fillColor=#f8cecc;strokeColor=#b85450;" vertex="1" parent="1">
          <mxGeometry x="517" y="926" width="83" height="60" as="geometry" />
        </mxCell>
        <mxCell id="H6BzWqApqqG7C8UaykM9-10" value="" style="edgeStyle=orthogonalEdgeStyle;rounded=0;orthogonalLoop=1;jettySize=auto;html=1;strokeColor=#000000;fontColor=#393C56;fillColor=#d5e8d4;strokeWidth=1;entryX=0.5;entryY=0;entryDx=0;entryDy=0;exitX=0.5;exitY=1;exitDx=0;exitDy=0;" edge="1" parent="1" source="n9ktEe5yNUZy0bc-ptNR-88" target="n9ktEe5yNUZy0bc-ptNR-90">
          <mxGeometry relative="1" as="geometry">
            <mxPoint x="458.58" y="530" as="sourcePoint" />
            <mxPoint x="458.58" y="619" as="targetPoint" />
          </mxGeometry>
        </mxCell>
        <mxCell id="H6BzWqApqqG7C8UaykM9-11" value="" style="edgeStyle=orthogonalEdgeStyle;rounded=0;orthogonalLoop=1;jettySize=auto;html=1;strokeColor=#000000;fontColor=#393C56;fillColor=#d5e8d4;strokeWidth=1;entryX=0.652;entryY=0.352;entryDx=0;entryDy=0;exitX=0.5;exitY=1;exitDx=0;exitDy=0;entryPerimeter=0;" edge="1" parent="1" source="n9ktEe5yNUZy0bc-ptNR-90" target="HC6WTdqTUnvUWUWs_5I_-8">
          <mxGeometry relative="1" as="geometry">
            <mxPoint x="444" y="832" as="sourcePoint" />
            <mxPoint x="444" y="879" as="targetPoint" />
          </mxGeometry>
        </mxCell>
        <mxCell id="H6BzWqApqqG7C8UaykM9-12" value="Valid" style="edgeLabel;html=1;align=center;verticalAlign=middle;resizable=0;points=[];" connectable="0" vertex="1" parent="H6BzWqApqqG7C8UaykM9-11">
          <mxGeometry x="-0.1892" relative="1" as="geometry">
            <mxPoint y="5" as="offset" />
          </mxGeometry>
        </mxCell>
        <mxCell id="H6BzWqApqqG7C8UaykM9-13" style="edgeStyle=orthogonalEdgeStyle;rounded=0;orthogonalLoop=1;jettySize=auto;html=1;exitX=0;exitY=0.5;exitDx=0;exitDy=0;" edge="1" parent="1" source="n9ktEe5yNUZy0bc-ptNR-27">
          <mxGeometry relative="1" as="geometry">
            <mxPoint x="100" y="422.25" as="sourcePoint" />
            <mxPoint x="403" y="888" as="targetPoint" />
            <Array as="points">
              <mxPoint x="70" y="496" />
              <mxPoint x="70" y="842" />
              <mxPoint x="403" y="842" />
              <mxPoint x="403" y="886" />
            </Array>
          </mxGeometry>
        </mxCell>
        <mxCell id="H6BzWqApqqG7C8UaykM9-14" style="edgeStyle=orthogonalEdgeStyle;rounded=0;orthogonalLoop=1;jettySize=auto;html=1;exitX=0;exitY=0.5;exitDx=0;exitDy=0;entryX=0.007;entryY=0.64;entryDx=0;entryDy=0;entryPerimeter=0;" edge="1" parent="1" source="n9ktEe5yNUZy0bc-ptNR-45" target="HC6WTdqTUnvUWUWs_5I_-8">
          <mxGeometry relative="1" as="geometry">
            <mxPoint x="109" y="576" as="sourcePoint" />
            <mxPoint x="109" y="642" as="targetPoint" />
            <Array as="points">
              <mxPoint x="97" y="580" />
              <mxPoint x="97" y="817" />
              <mxPoint x="425" y="817" />
            </Array>
          </mxGeometry>
        </mxCell>
        <mxCell id="H6BzWqApqqG7C8UaykM9-15" value="" style="endArrow=classic;html=1;rounded=0;exitX=0.156;exitY=0.566;exitDx=0;exitDy=0;exitPerimeter=0;entryX=0.5;entryY=0;entryDx=0;entryDy=0;" edge="1" parent="1" source="HC6WTdqTUnvUWUWs_5I_-8" target="n9ktEe5yNUZy0bc-ptNR-104">
          <mxGeometry width="50" height="50" relative="1" as="geometry">
            <mxPoint x="196" y="1000" as="sourcePoint" />
            <mxPoint x="246" y="950" as="targetPoint" />
          </mxGeometry>
        </mxCell>
        <mxCell id="H6BzWqApqqG7C8UaykM9-19" style="edgeStyle=orthogonalEdgeStyle;rounded=0;orthogonalLoop=1;jettySize=auto;html=1;exitX=0.926;exitY=0.686;exitDx=0;exitDy=0;exitPerimeter=0;" edge="1" parent="1" source="lNycp6lvrUIBZqgX708--5">
          <mxGeometry relative="1" as="geometry">
            <mxPoint x="635" y="1068" as="sourcePoint" />
            <mxPoint x="531" y="1112" as="targetPoint" />
            <Array as="points">
              <mxPoint x="634" y="1086" />
              <mxPoint x="531" y="1086" />
              <mxPoint x="531" y="1112" />
            </Array>
          </mxGeometry>
        </mxCell>
        <mxCell id="H6BzWqApqqG7C8UaykM9-26" style="edgeStyle=orthogonalEdgeStyle;rounded=0;orthogonalLoop=1;jettySize=auto;html=1;entryX=0.259;entryY=0.688;entryDx=0;entryDy=0;entryPerimeter=0;" edge="1" parent="1" source="n9ktEe5yNUZy0bc-ptNR-113" target="b3z0fCEWwH0nH7quRvht-26">
          <mxGeometry relative="1" as="geometry">
            <mxPoint x="540" y="1184" as="sourcePoint" />
            <mxPoint x="387.5" y="1262" as="targetPoint" />
            <Array as="points">
              <mxPoint x="540" y="1206" />
              <mxPoint x="589" y="1206" />
            </Array>
          </mxGeometry>
        </mxCell>
        <mxCell id="H6BzWqApqqG7C8UaykM9-27" value="" style="ellipse;html=1;shape=endState;fillColor=#000000;strokeColor=#ff0000;" vertex="1" parent="1">
          <mxGeometry x="583" y="1496" width="30" height="30" as="geometry" />
        </mxCell>
        <mxCell id="H6BzWqApqqG7C8UaykM9-35" value="" style="endArrow=classic;html=1;rounded=0;exitX=0.911;exitY=0.581;exitDx=0;exitDy=0;exitPerimeter=0;entryX=0.5;entryY=0;entryDx=0;entryDy=0;" edge="1" parent="1" source="b3z0fCEWwH0nH7quRvht-26" target="n9ktEe5yNUZy0bc-ptNR-82">
          <mxGeometry width="50" height="50" relative="1" as="geometry">
            <mxPoint x="463" y="1379" as="sourcePoint" />
            <mxPoint x="513" y="1329" as="targetPoint" />
          </mxGeometry>
        </mxCell>
        <mxCell id="H6BzWqApqqG7C8UaykM9-37" value="&lt;br&gt;Create printing package that contains printing information" style="shape=note;size=20;whiteSpace=wrap;html=1;fillColor=#F8CECC;" vertex="1" parent="1">
          <mxGeometry x="380" y="1021" width="140" height="70" as="geometry" />
        </mxCell>
        <mxCell id="H6BzWqApqqG7C8UaykM9-44" value="" style="endArrow=none;dashed=1;html=1;rounded=0;entryX=0.5;entryY=1;entryDx=0;entryDy=0;exitX=0.371;exitY=-0.02;exitDx=0;exitDy=0;exitPerimeter=0;" edge="1" parent="1" source="H6BzWqApqqG7C8UaykM9-37" target="n9ktEe5yNUZy0bc-ptNR-104">
          <mxGeometry width="50" height="50" relative="1" as="geometry">
            <mxPoint x="266" y="1033" as="sourcePoint" />
            <mxPoint x="316" y="983" as="targetPoint" />
          </mxGeometry>
        </mxCell>
      </root>
    </mxGraphModel>
  </diagram>
</mxfile>
